<?xml version="1.0" encoding="UTF-8"?>
<svg version="1.1" xmlns="http://www.w3.org/2000/svg" width="585" height="585">
<path d="M0 0 C-0.50603992 2.16874252 -0.99983813 3.99967627 -2 6 C-2.59312988 5.93941406 -3.18625977 5.87882812 -3.79736328 5.81640625 C-30.40692078 3.13845581 -59.44621152 1.17762973 -81.640625 19.13671875 C-92.83400001 29.75559935 -98.62632073 45.78410243 -99.203125 61.109375 C-99.62933487 85.89388118 -92.99598671 107.90908363 -82 130 C-81.17089111 129.72325439 -80.34178223 129.44650879 -79.48754883 129.16137695 C-47.49369335 118.53068229 -47.49369335 118.53068229 -32.33300781 115.47167969 C-30.82661974 115.1671232 -29.32298743 114.84843909 -27.82324219 114.51269531 C-0.8319057 108.54877814 30.1433772 110.39513959 57 116 C58.00836914 116.20367187 59.01673828 116.40734375 60.05566406 116.6171875 C86.44826762 122.10048571 112.60080403 132.39551109 134 149 C134.95003906 149.68578125 135.90007812 150.3715625 136.87890625 151.078125 C142.6050541 155.22902227 147.96848189 159.60736422 153.1875 164.375 C153.75259277 164.88708008 154.31768555 165.39916016 154.89990234 165.92675781 C157.39916457 168.25384349 158.90293465 169.70880396 160 173 C160.66 173 161.32 173 162 173 C176.40926618 187.93719188 196 216.48527489 196 238 C191.95242294 236.65080765 191.20128289 234.66862088 188.875 231.125 C184.60155203 224.76376732 180.00774798 218.8093182 175 213 C174.15695312 212.02160156 173.31390625 211.04320312 172.4453125 210.03515625 C161.54404609 197.64053829 148.84455718 187.91079695 135 179 C134.42169434 178.62746094 133.84338867 178.25492188 133.24755859 177.87109375 C99.69153758 156.64277348 56.48616872 151.42680987 18 160 C-4.39496425 165.07822319 -23.67777761 174.80090557 -43 187 C-39.90359893 191.24443249 -36.88927802 195.37548298 -33.0625 199 C-30.45235211 201.53613613 -27.98746299 204.10674925 -25.625 206.875 C-19.63893055 213.81556799 -13.08389092 220.20605405 -6.12109375 226.16015625 C-3.57458942 228.36900254 -1.1039984 230.65320554 1.375 232.9375 C6.41578885 237.52821842 11.61600503 241.82042464 17 246 C17.96292969 246.75796875 18.92585937 247.5159375 19.91796875 248.296875 C66.34660925 284.51698213 119.73852054 312.16100129 179 318 C179.042721 319.66611905 179.04063832 321.33382885 179 323 C177.01541912 324.98458088 173.26212461 324.28930984 170.5625 324.3125 C105.97841481 324.3125 39.96773737 285.62132714 -8 245 C-9.05428359 244.11930792 -10.10899379 243.23912636 -11.1640625 242.359375 C-17.32823674 237.20155955 -23.36006445 231.93348589 -29.26953125 226.484375 C-31.41823899 224.52932762 -33.59231311 222.62558283 -35.79296875 220.73046875 C-40.22502094 216.86475464 -44.36796001 212.74427751 -48.5 208.5625 C-49.22703125 207.83095703 -49.9540625 207.09941406 -50.703125 206.34570312 C-52.47109499 204.56610176 -54.23666378 202.78419082 -56 201 C-60.11499829 202.8716464 -62.61765278 205.59393279 -65.5 209 C-66.02118408 209.61447998 -66.54236816 210.22895996 -67.0793457 210.86206055 C-89.14362575 237.46032344 -105 270.88341646 -105 306 C-108.45940313 304.84686562 -108.56521922 304.49639032 -110.11865234 301.40625 C-110.51190201 300.63620132 -110.90515167 299.86615265 -111.31031799 299.07276917 C-111.73127243 298.22375534 -112.15222687 297.37474152 -112.5859375 296.5 C-113.03537216 295.61356308 -113.48480682 294.72712616 -113.94786072 293.81382751 C-115.4326861 290.88038968 -116.90370875 287.94024603 -118.375 285 C-119.40415583 282.96114653 -120.4343598 280.92282182 -121.46557617 278.88500977 C-123.59432621 274.67672469 -125.71866377 270.46625397 -127.84033203 266.25439453 C-130.8164614 260.35396885 -133.82128523 254.4686593 -136.83984375 248.58984375 C-137.30457092 247.68473053 -137.7692981 246.77961731 -138.24810791 245.84707642 C-139.60250444 243.21034476 -140.95744651 240.57389408 -142.3125 237.9375 C-147.78371661 227.29009754 -153.21677585 216.62657929 -158.53108215 205.89976501 C-161.43736894 200.05320223 -164.47066729 194.28622672 -167.65983582 188.58876038 C-169.17861468 185.81857683 -170 184.2180782 -170 181 C-168.64916992 179.65649414 -168.64916992 179.65649414 -166.73046875 178.28515625 C-166.01616699 177.76985352 -165.30186523 177.25455078 -164.56591797 176.72363281 C-163.78104004 176.17545898 -162.99616211 175.62728516 -162.1875 175.0625 C-161.37941895 174.48983398 -160.57133789 173.91716797 -159.73876953 173.32714844 C-141.70673008 160.6751601 -122.80323031 149.62313223 -103 140 C-103.4846875 139.11441406 -103.969375 138.22882813 -104.46875 137.31640625 C-120.34448945 108.09288586 -137.03130331 72.70586649 -127.9050293 38.77001953 C-122.98205239 22.35461512 -113.16570685 8.63868688 -97.96484375 0.34375 C-67.66641388 -14.3901706 -31.29695364 -8.76874409 0 0 Z " fill="#02AEEF" transform="translate(218,55)"/>
<path d="M0 0 C4.46776745 17.50276419 8.66980481 35.03700702 12.57058716 52.67553711 C13.96255571 58.96899452 15.36655328 65.25977063 16.76953125 71.55078125 C17.04588913 72.79119171 17.32224701 74.03160217 17.60697937 75.30960083 C20.37583738 87.72066563 23.22643112 100.11220718 26.10888672 112.49731445 C26.91216046 115.94903877 27.71106679 119.40173955 28.50567627 122.85546875 C28.85451626 124.36884596 29.20506072 125.88183078 29.55682373 127.39453125 C30.12539392 129.84512966 30.68647587 132.29734357 31.24609375 134.75 C31.50955345 135.87680176 31.50955345 135.87680176 31.77833557 137.02636719 C32.61947297 140.74662285 33.21094435 144.18139047 33 148 C32.34 148 31.68 148 31 148 C30.03678502 146.93619611 29.13089825 145.8204078 28.25 144.6875 C3.99544442 116.33217419 -39.28671023 100.65886808 -75.56005859 97.7980957 C-123.45422845 94.74265271 -172.54181616 104.96317844 -214.91308594 127.88964844 C-217.33203471 129.17666049 -219.77705075 130.40498486 -222.2265625 131.6328125 C-245.47071729 143.26324651 -245.47071729 143.26324651 -266.62060547 158.203125 C-269 160 -269 160 -272 160 C-272 158 -272 158 -269.8828125 155.84765625 C-269.19493652 155.18660889 -269.19493652 155.18660889 -268.49316406 154.51220703 C-265.71155091 151.69511876 -263.33389741 148.53498558 -260.875 145.4375 C-255.17881641 138.3459697 -249.21484778 131.6394086 -243 125 C-242.0606366 123.97175131 -241.12316145 122.94177469 -240.1875 121.91015625 C-232.86596563 113.8383452 -225.43416399 105.97213962 -217.15234375 98.87109375 C-214.61947838 96.66920171 -212.15667478 94.39804174 -209.6875 92.125 C-189.88036698 74.12587504 -167.89044473 58.56400427 -144.81005859 45.06152344 C-143.07235381 44.04243247 -141.34262392 43.00977992 -139.61328125 41.9765625 C-109.82482727 24.47022369 -76.60316512 12.28736825 -42.875 5.125 C-41.85019531 4.90657944 -41.85019531 4.90657944 -40.8046875 4.68374634 C-27.17765886 1.8103226 -13.94153779 -0.16642593 0 0 Z " fill="#007DB6" transform="translate(405,14)"/>
<path d="M0 0 C0.87857666 -0.00979385 1.75715332 -0.01958771 2.66235352 -0.02967834 C66.21676996 -0.59108966 128.37360602 13.98741308 176.2421875 58.1796875 C178.19782401 59.97207087 180.19872383 61.66868069 182.23828125 63.36328125 C201.36451199 80.1897648 221.41249074 104.2700989 230.48828125 128.23828125 C229.80765625 128.73328125 229.12703125 129.22828125 228.42578125 129.73828125 C225.4884592 132.2381298 223.13066141 134.85111753 220.6328125 137.7734375 C218.01938746 140.77721018 215.32170508 143.69530983 212.61328125 146.61328125 C209.04373229 150.46407074 205.49181653 154.32706187 201.98828125 158.23828125 C198.48473834 162.14950915 194.93247962 166.01215916 191.36328125 169.86328125 C188.2329634 173.24146838 185.11842897 176.62245309 182.11328125 180.11328125 C178.67893558 184.0890016 175.08122552 187.90658455 171.48828125 191.73828125 C166.72066629 196.82369583 162.04447162 201.96212683 157.48828125 207.23828125 C155.89109913 209.07770265 154.28661374 210.91080198 152.67578125 212.73828125 C151.92683594 213.59421875 151.17789063 214.45015625 150.40625 215.33203125 C148.48828125 217.23828125 148.48828125 217.23828125 146.48828125 217.23828125 C146.79572266 215.40716797 146.79572266 215.40716797 147.109375 213.5390625 C154.70857283 167.52613087 151.18605189 117.29898263 124.16015625 77.71875 C122.02148869 74.80612407 119.81139978 72.00546492 117.48828125 69.23828125 C116.77027344 68.38105469 116.05226563 67.52382812 115.3125 66.640625 C79.6290469 25.63317534 24.48456882 13.62579819 -27.39648438 9.45043945 C-33.01333339 9.06791267 -38.63570474 8.86989146 -44.26171875 8.67578125 C-45.44765625 8.63259766 -46.63359375 8.58941406 -47.85546875 8.54492188 C-50.74080551 8.44021207 -53.62620717 8.33803604 -56.51171875 8.23828125 C-56.51171875 7.57828125 -56.51171875 6.91828125 -56.51171875 6.23828125 C-51.42576468 5.54223189 -46.33949377 4.84855987 -41.25292969 4.15698242 C-39.52660607 3.92194079 -37.80036704 3.68627692 -36.07421875 3.44995117 C-33.57704912 3.10817998 -31.07957245 2.76873145 -28.58203125 2.4296875 C-27.44545578 2.27337608 -27.44545578 2.27337608 -26.28591919 2.11390686 C-17.5220392 0.92928447 -8.84776633 0.08253104 0 0 Z " fill="#01AEEF" transform="translate(288.51171875,145.76171875)"/>
<path d="M0 0 C1.51255371 0.30550781 1.51255371 0.30550781 3.05566406 0.6171875 C29.44826762 6.10048571 55.60080403 16.39551109 77 33 C78.42505859 34.02867187 78.42505859 34.02867187 79.87890625 35.078125 C85.6050541 39.22902227 90.96848189 43.60736422 96.1875 48.375 C96.75259277 48.88708008 97.31768555 49.39916016 97.89990234 49.92675781 C100.39916457 52.25384349 101.90293465 53.70880396 103 57 C103.66 57 104.32 57 105 57 C119.40926618 71.93719188 139 100.48527489 139 122 C134.95242294 120.65080765 134.20128289 118.66862088 131.875 115.125 C127.60155203 108.76376732 123.00774798 102.8093182 118 97 C117.15695312 96.02160156 116.31390625 95.04320312 115.4453125 94.03515625 C104.54404609 81.64053829 91.84455718 71.91079695 78 63 C77.42169434 62.62746094 76.84338867 62.25492187 76.24755859 61.87109375 C42.69153758 40.64277348 -0.51383128 35.42680987 -39 44 C-58.82173468 48.49472442 -76.5495459 56.32869011 -93.64282227 67.27783203 C-94.82702759 68.02589111 -94.82702759 68.02589111 -96.03515625 68.7890625 C-96.7300415 69.23975098 -97.42492676 69.69043945 -98.14086914 70.15478516 C-100 71 -100 71 -103 70 C-104.7230499 68.05781658 -106.30603747 66.12378536 -107.875 64.0625 C-108.35332275 63.44060791 -108.83164551 62.81871582 -109.32446289 62.17797852 C-110.89284865 60.12596292 -112.44685373 58.0635677 -114 56 C-114.78721436 54.96697754 -114.78721436 54.96697754 -115.59033203 53.91308594 C-122.26439505 45.12424662 -128.34057604 36.11523623 -133.875 26.5625 C-134.40536865 25.6562085 -134.9357373 24.74991699 -135.48217773 23.81616211 C-135.95985596 22.97061768 -136.43753418 22.12507324 -136.9296875 21.25390625 C-137.35491699 20.50439697 -137.78014648 19.7548877 -138.21826172 18.98266602 C-139 17 -139 17 -138 14 C-135.46582031 12.82080078 -135.46582031 12.82080078 -132.078125 11.6953125 C-130.83530762 11.27902588 -129.59249023 10.86273926 -128.31201172 10.43383789 C-126.95838811 9.99638009 -125.60437485 9.56012637 -124.25 9.125 C-123.56939514 8.90278778 -122.88879028 8.68057556 -122.18756104 8.45162964 C-111.36512745 4.92128727 -100.52206664 1.70850115 -89.34912109 -0.52832031 C-87.83577225 -0.83218541 -86.32526318 -1.15074711 -84.81884766 -1.48730469 C-57.82960312 -7.45211836 -26.85469347 -5.60445777 0 0 Z " fill="#017DB6" transform="translate(275,171)"/>
<path d="M0 0 C1.35678072 1.93116158 2.5912497 3.85966562 3.8125 5.875 C12.69724829 20.07663447 22.81853545 33.31736964 33.50732422 46.19873047 C35.79043732 48.95385125 38.05014247 51.72781542 40.3125 54.5 C41.54137333 56.00024033 42.77041097 57.5003462 44 59 C40.86946677 63.39502313 37.59948716 67.46734134 33.875 71.375 C11.08400296 96.42974927 -4 131.93001467 -4 166 C-7.45940313 164.84686562 -7.56521922 164.49639032 -9.11865234 161.40625 C-9.51190201 160.63620132 -9.90515167 159.86615265 -10.31031799 159.07276917 C-10.73127243 158.22375534 -11.15222687 157.37474152 -11.5859375 156.5 C-12.03537216 155.61356308 -12.48480682 154.72712616 -12.94786072 153.81382751 C-14.4326861 150.88038968 -15.90370875 147.94024603 -17.375 145 C-18.40415583 142.96114653 -19.4343598 140.92282182 -20.46557617 138.88500977 C-22.59432621 134.67672469 -24.71866377 130.46625397 -26.84033203 126.25439453 C-29.8164614 120.35396885 -32.82128523 114.4686593 -35.83984375 108.58984375 C-36.30457092 107.68473053 -36.7692981 106.77961731 -37.24810791 105.84707642 C-38.60250444 103.21034476 -39.95744651 100.57389408 -41.3125 97.9375 C-46.78371661 87.29009754 -52.21677585 76.62657929 -57.53108215 65.89976501 C-60.43736894 60.05320223 -63.47066729 54.28622672 -66.65983582 48.58876038 C-68.17861468 45.81857683 -69 44.2180782 -69 41 C-67.64916992 39.65649414 -67.64916992 39.65649414 -65.73046875 38.28515625 C-64.65901611 37.51220215 -64.65901611 37.51220215 -63.56591797 36.72363281 C-62.78104004 36.17545898 -61.99616211 35.62728516 -61.1875 35.0625 C-60.37941895 34.48983398 -59.57133789 33.91716797 -58.73876953 33.32714844 C-11.23979629 0 -11.23979629 0 0 0 Z " fill="#007DB6" transform="translate(117,195)"/>
<path d="M0 0 C5.33444247 -0.07492194 10.66856946 -0.12896171 16.00341797 -0.16479492 C17.81304265 -0.17975449 19.6226319 -0.20012957 21.43212891 -0.22631836 C35.73621889 -0.42795147 49.22159629 -0.27995444 61 9 C67.81994086 15.83435934 70.11893596 23.45251264 70.4375 32.9375 C70.18927697 42.54579994 67.38785552 49.33795024 60.79296875 56.3125 C49.9231261 66.54294014 36.14703627 65.2566371 22.23535156 64.90478516 C18.5313304 64.78202941 14.82821453 64.64499358 11.125 64.5 C9.85269531 64.45230469 8.58039063 64.40460938 7.26953125 64.35546875 C4.17959133 64.23930559 1.08976194 64.1207892 -2 64 C-1.67 62.68 -1.34 61.36 -1 60 C1.64 59.67 4.28 59.34 7 59 C8.09447595 49.19833215 8.15412468 39.44461114 8.13037109 29.59692383 C8.12494762 26.91156534 8.13037904 24.22636946 8.13671875 21.54101562 C8.13605899 19.82812463 8.13477995 18.11523374 8.1328125 16.40234375 C8.13483673 15.60239487 8.13686096 14.80244598 8.13894653 13.97825623 C8.12512825 10.72616966 8.03575699 8.10727097 7 5 C3.48809191 3.77030122 3.48809191 3.77030122 0 3 C0 2.01 0 1.02 0 0 Z M24 6 C23.84120036 7.60499041 23.74862033 9.21660923 23.68359375 10.828125 C23.64145752 11.84608154 23.59932129 12.86403809 23.5559082 13.9128418 C23.5168335 15.014104 23.47775879 16.11536621 23.4375 17.25 C23.3964917 18.36995361 23.3554834 19.48990723 23.31323242 20.64379883 C23.06240236 27.99057493 22.87135496 35.33658207 22.8125 42.6875 C22.79952881 43.54053711 22.78655762 44.39357422 22.77319336 45.27246094 C22.76624227 49.87871528 23.02928371 53.73775314 25 58 C29.08043859 60.72029239 32.21036798 60.62102198 37 60 C42.57951214 58.24956482 47.06837941 55.15254527 50 50 C54.69063928 39.40823388 53.93251728 28.70696102 50.265625 17.92578125 C47.97166796 12.62277562 44.96807516 9.4526269 40.375 6.0625 C36.498187 4.84202183 27.20297639 2.79702361 24 6 Z " fill="#007DB6" transform="translate(358,388)"/>
<path d="M0 0 C0.76868408 -0.02126953 1.53736816 -0.04253906 2.3293457 -0.06445312 C8.91846371 -0.105006 13.52750236 1.32478472 18.5625 5.8125 C21.81998527 9.54902722 22.09733786 12.02981657 22.02734375 16.8671875 C21.45424289 20.88548086 19.58463583 23.48194448 16.6875 26.25 C14.40781754 27.84200965 12.19767137 29.01952384 9.6875 30.25 C10.36296875 30.62511719 11.0384375 31.00023437 11.734375 31.38671875 C17.34486802 34.60545535 21.71354155 37.30208311 24.6875 43.25 C25.24801959 47.8444229 25.15129562 51.32240876 23.0625 55.5 C18.01483671 61.34466276 13.45552396 64.78907445 5.56033325 65.41998291 C3.19495263 65.48004159 0.83859335 65.47520735 -1.52734375 65.4453125 C-2.38308487 65.4424826 -3.23882599 65.43965271 -4.12049866 65.43673706 C-6.83047991 65.42561935 -9.54012009 65.40053082 -12.25 65.375 C-14.09700041 65.36495931 -15.94400604 65.35583537 -17.79101562 65.34765625 C-22.29830677 65.32570763 -26.80534573 65.29123654 -31.3125 65.25 C-31.3125 64.26 -31.3125 63.27 -31.3125 62.25 C-30.178125 61.816875 -29.04375 61.38375 -27.875 60.9375 C-26.699375 60.380625 -25.52375 59.82375 -24.3125 59.25 C-23.39103649 56.48560947 -23.18160171 54.81806247 -23.16723633 51.96557617 C-23.16085648 51.10425583 -23.15447662 50.24293549 -23.14790344 49.35551453 C-23.14679062 48.42737442 -23.1456778 47.49923431 -23.14453125 46.54296875 C-23.14120285 45.58481766 -23.13787445 44.62666656 -23.13444519 43.63948059 C-23.12938107 41.61113973 -23.12703671 39.58279054 -23.12719727 37.55444336 C-23.12501585 34.45998278 -23.10686861 31.36588163 -23.08789062 28.27148438 C-23.08495554 26.29948038 -23.08297152 24.3274747 -23.08203125 22.35546875 C-23.07484573 21.43340134 -23.06766022 20.51133392 -23.06025696 19.56132507 C-23.07712703 14.78659817 -23.19900449 10.6425926 -25.3125 6.25 C-28.33029872 4.79839062 -28.33029872 4.79839062 -31.3125 4.25 C-30.9825 3.26 -30.6525 2.27 -30.3125 1.25 C-20.21522562 0.65416505 -10.11519412 0.13695036 0 0 Z M-8.3125 5.25 C-8.3125 13.17 -8.3125 21.09 -8.3125 29.25 C0.17643489 28.82451115 0.17643489 28.82451115 5.6875 24.25 C8.21434848 19.31115979 8.05113705 14.52406682 6.6875 9.25 C4.46825755 5.83578085 3.16828274 5.36161028 -0.8125 4.4375 C-4.43197238 4.07155728 -4.43197238 4.07155728 -8.3125 5.25 Z M-8.3125 34.25 C-8.34142857 38.20831809 -8.35927427 42.16660917 -8.375 46.125 C-8.38337891 47.25292969 -8.39175781 48.38085938 -8.40039062 49.54296875 C-8.40361328 50.61933594 -8.40683594 51.69570313 -8.41015625 52.8046875 C-8.41539307 53.79968262 -8.42062988 54.79467773 -8.42602539 55.81982422 C-8.4764415 58.25960773 -8.4764415 58.25960773 -7.3125 60.25 C-0.54925948 60.78473958 -0.54925948 60.78473958 5.6875 58.5625 C8.75776801 55.01250262 9.57594753 52.47707713 10 47.8125 C9.55313317 42.71821809 7.95163834 39.70567445 4.625 35.875 C1.42786224 34.1063706 0.07114776 34.07321586 -3.49609375 34.1484375 C-4.3977124 34.16310059 -5.29933105 34.17776367 -6.22827148 34.19287109 C-6.91606689 34.21172363 -7.6038623 34.23057617 -8.3125 34.25 Z " fill="#007DB6" transform="translate(236.3125,386.75)"/>
<path d="M0 0 C2.88888521 0.27428925 4.13279744 -0.2288766 6.55078125 -1.7578125 C8.69546774 0.38687399 8.29036005 4.82663644 8.61328125 7.8046875 C8.70416016 8.61099609 8.79503906 9.41730469 8.88867188 10.24804688 C9.11325574 12.24566127 9.33251361 14.2438731 9.55078125 16.2421875 C8.23078125 16.5721875 6.91078125 16.9021875 5.55078125 17.2421875 C5.19886719 16.63890625 4.84695312 16.035625 4.484375 15.4140625 C1.10384045 9.94165671 -1.40788123 6.63789031 -7.44921875 4.2421875 C-11.72544612 3.62442107 -15.8284815 3.63525668 -19.44921875 6.2421875 C-21.03289977 9.40954954 -20.86978581 11.757489 -20.44921875 15.2421875 C-16.28451507 18.61451986 -12.17713885 20.13365815 -7.07421875 21.6171875 C1.77383901 24.37565513 7.99728156 28.04588806 12.55078125 36.2421875 C14.30493147 41.50463815 14.28280565 46.25067631 12.05078125 51.3046875 C8.82202944 57.08905911 4.15096184 61.17425619 -1.94921875 63.6796875 C-11.10748402 65.15155156 -17.73290213 63.21849074 -26.44921875 60.2421875 C-27.43921875 61.5621875 -28.42921875 62.8821875 -29.44921875 64.2421875 C-30.43921875 63.9121875 -31.42921875 63.5821875 -32.44921875 63.2421875 C-33.44784574 55.87731346 -33.55252906 48.66905065 -33.44921875 41.2421875 C-32.45921875 41.2421875 -31.46921875 41.2421875 -30.44921875 41.2421875 C-29.08984375 43.21875 -29.08984375 43.21875 -27.69921875 45.8671875 C-24.45123198 51.57748842 -20.81762642 56.11938494 -14.44921875 58.2421875 C-9.14469452 58.58441487 -5.72443472 58.76295359 -1.44921875 55.2421875 C0.57546377 52.66531884 0.5550406 51.12505535 0.67578125 47.8046875 C-0.70014712 43.44758101 -1.98448705 42.56121849 -5.86328125 40.42578125 C-9.97969977 38.54168032 -14.21553518 36.99896707 -18.45703125 35.421875 C-24.66302202 32.97512668 -28.48505179 29.56549742 -32.44921875 24.2421875 C-34.29911397 18.69250184 -34.41435916 13.20958911 -31.82421875 7.9296875 C-22.48359439 -2.63996638 -13.24731079 -3.03545169 0 0 Z " fill="#007DB6" transform="translate(89.44921875,388.7578125)"/>
<path d="M0 0 C5.28 0 10.56 0 16 0 C16.04898437 2.10761719 16.09796875 4.21523438 16.1484375 6.38671875 C16.20252219 8.43878991 16.25980006 10.49074897 16.31738281 12.54272461 C16.35555149 13.9635373 16.39042513 15.38444263 16.421875 16.80541992 C16.46779065 18.85368855 16.52573805 20.90132608 16.5859375 22.94921875 C16.63306885 24.79519653 16.63306885 24.79519653 16.68115234 26.6784668 C16.98841717 29.87933817 17.53929914 32.149764 19 35 C20.78671071 36.17612195 20.78671071 36.17612195 23 36 C25.75047818 35.11734188 25.75047818 35.11734188 28 33 C30.22500662 27.10059863 30.41973041 21.31894606 30.625 15.0625 C30.66367187 14.09248047 30.70234375 13.12246094 30.7421875 12.12304688 C30.83575076 9.74887924 30.92149208 7.37470508 31 5 C28.03 4.505 28.03 4.505 25 4 C25.33 2.68 25.66 1.36 26 0 C31.28 0 36.56 0 42 0 C42.06058594 2.33578125 42.12117187 4.6715625 42.18359375 7.078125 C42.24543703 9.34524601 42.30880236 11.61231973 42.37231445 13.87939453 C42.41557338 15.45259374 42.45725474 17.02583717 42.49731445 18.59912109 C42.55523662 20.86309115 42.61886714 23.12684051 42.68359375 25.390625 C42.70030624 26.09181458 42.71701874 26.79300415 42.73423767 27.51544189 C42.78234039 32.36826373 42.78234039 32.36826373 44 37 C44.99 37.33 45.98 37.66 47 38 C46.67 39.32 46.34 40.64 46 42 C41.38 42 36.76 42 32 42 C31.34 40.35 30.68 38.7 30 37 C29.236875 37.639375 28.47375 38.27875 27.6875 38.9375 C22.65972245 42.79602696 17.1219103 42.77980409 11 42 C7.06770556 39.35172007 5.63526672 36.78610203 4.41723633 32.26733398 C3.49550436 27.25848389 3.51359969 22.14160098 3.375 17.0625 C3.33632813 15.90169922 3.29765625 14.74089844 3.2578125 13.54492188 C3.16404613 10.69676831 3.07834083 7.84861262 3 5 C1.68 4.34 0.36 3.68 -1 3 C-0.67 2.01 -0.34 1.02 0 0 Z " fill="#007DB6" transform="translate(481,410)"/>
<path d="M0 0 C5.24316499 4.03703769 8.42560538 8.09522116 9.40625 14.76171875 C9.65911464 22.65320263 8.11025619 27.90786052 3 34 C-3.36744909 39.83011162 -9.12552518 40.3548276 -17.4765625 40.27734375 C-23.70534104 39.78705187 -27.77183668 37.6589232 -31.875 33 C-36.55316818 26.39552728 -36.75041302 21.03326755 -36 13 C-34.488322 7.07766659 -31.04797795 3.57075949 -26.07421875 0.1875 C-17.87656426 -4.50569579 -8.288034 -4.23313565 0 0 Z M-20 4 C-24.29786095 10.94619076 -23.28756068 19.96761839 -21.671875 27.609375 C-20.87199149 30.45547212 -19.85098011 32.68627486 -18 35 C-15.12529507 36.43735246 -13.18105412 36.38172649 -10 36 C-5.24692666 31.3753881 -4.84174907 27.21199784 -4.75 20.8125 C-4.82232724 13.66013971 -5.35575664 7.64424336 -10.5625 2.4375 C-14.63178916 0.0376628 -16.29961699 1.40973189 -20 4 Z " fill="#007DB6" transform="translate(191,412)"/>
<path d="M0 0 C2.74714721 2.1061462 3.36791969 3.65015141 4 7 C4.08147598 9.17059032 4.10752942 11.34352851 4.09765625 13.515625 C4.09443359 14.76601563 4.09121094 16.01640625 4.08789062 17.3046875 C4.07532227 19.25761719 4.07532227 19.25761719 4.0625 21.25 C4.05798828 22.56742187 4.05347656 23.88484375 4.04882812 25.2421875 C4.03704316 28.49483741 4.02059011 31.74739584 4 35 C5.98 35 7.96 35 10 35 C10.33 35.99 10.66 36.98 11 38 C5.77390105 40.29115208 0.71367695 41.24842074 -5 41 C-8.1875 39.0625 -8.1875 39.0625 -10 37 C-10.4846875 37.30035156 -10.969375 37.60070312 -11.46875 37.91015625 C-15.07233768 39.95449926 -17.98035342 41.3830445 -22.1875 41.0625 C-26.6837727 39.8094404 -28.40732046 38.88901931 -31 35 C-31.96359439 31.07206561 -31.79417127 27.73336511 -30.1015625 24.0390625 C-26.27331132 18.72591389 -20.86282555 17.06142453 -14.828125 15.04296875 C-11.91295302 14.19213143 -11.91295302 14.19213143 -10 12 C-9.02766689 8.64103108 -8.89259539 6.32221382 -10 3 C-12.97 2.505 -12.97 2.505 -16 2 C-16.25394531 2.55429687 -16.50789063 3.10859375 -16.76953125 3.6796875 C-17.11371094 4.40414063 -17.45789063 5.12859375 -17.8125 5.875 C-18.14894531 6.59429687 -18.48539062 7.31359375 -18.83203125 8.0546875 C-20 10 -20 10 -23 12 C-25.5625 11.8125 -25.5625 11.8125 -28 11 C-30 8 -30 8 -29.875 5.5625 C-28.77864639 2.35175013 -27.70023769 1.06070771 -25 -1 C-16.82576547 -4.33642226 -7.73412451 -4.35044504 0 0 Z M-19 23 C-20.48243075 25.96810734 -20.48243075 25.96810734 -20 29 C-18.68326167 31.83658587 -18.68326167 31.83658587 -17 34 C-14.45721976 33.65638105 -12.50514327 33.34971457 -10.375 31.875 C-8.35131838 29.11543415 -8.47979331 26.69182485 -8.3125 23.3125 C-8.24675781 22.13300781 -8.18101562 20.95351563 -8.11328125 19.73828125 C-8.07589844 18.83464844 -8.03851563 17.93101562 -8 17 C-12.1827658 17 -15.92669153 20.38022831 -19 23 Z " fill="#007DB6" transform="translate(467,412)"/>
<path d="M0 0 C1.55859375 1.16796875 1.55859375 1.16796875 3.55859375 4.16796875 C3.87744141 7.35424805 3.87744141 7.35424805 3.97265625 11.2421875 C3.9920224 11.92602005 4.01138855 12.6098526 4.03134155 13.31440735 C4.09103372 15.494635 4.13748006 17.67491577 4.18359375 19.85546875 C4.22178318 21.33530925 4.26083549 22.81512775 4.30078125 24.29492188 C4.39672577 27.91906925 4.48079526 31.54338132 4.55859375 35.16796875 C6.53859375 35.16796875 8.51859375 35.16796875 10.55859375 35.16796875 C10.22859375 36.48796875 9.89859375 37.80796875 9.55859375 39.16796875 C3.53384096 40.85545738 -1.28824329 41.57132171 -7.44140625 40.16796875 C-8.10140625 39.17796875 -8.76140625 38.18796875 -9.44140625 37.16796875 C-9.92609375 37.46832031 -10.41078125 37.76867187 -10.91015625 38.078125 C-14.51374393 40.12246801 -17.42175967 41.55101325 -21.62890625 41.23046875 C-26.15978766 39.96776409 -27.86235941 39.11713423 -30.44140625 35.16796875 C-31.13803929 31.69051366 -31.13584499 28.64590161 -30.44140625 25.16796875 C-27.02349904 20.09623547 -21.90708368 18.40611083 -16.44140625 16.16796875 C-12.69383438 14.54383187 -12.69383438 14.54383187 -9.44140625 12.16796875 C-9.36935114 10.48187909 -9.35754557 8.79296216 -9.37890625 7.10546875 C-9.38792969 6.18636719 -9.39695313 5.26726562 -9.40625 4.3203125 C-9.41785156 3.61003906 -9.42945313 2.89976562 -9.44140625 2.16796875 C-11.42140625 2.16796875 -13.40140625 2.16796875 -15.44140625 2.16796875 C-15.69535156 2.72226562 -15.94929688 3.2765625 -16.2109375 3.84765625 C-16.55511719 4.57210938 -16.89929688 5.2965625 -17.25390625 6.04296875 C-17.59035156 6.76226562 -17.92679688 7.4815625 -18.2734375 8.22265625 C-19.44140625 10.16796875 -19.44140625 10.16796875 -22.44140625 12.16796875 C-25.76380949 11.84383185 -27.04916928 11.56020572 -29.44140625 9.16796875 C-29.50390625 5.79296875 -29.50390625 5.79296875 -28.44140625 2.16796875 C-20.7362399 -4.60935034 -8.66251199 -4.7004483 0 0 Z M-18.44140625 23.16796875 C-19.92248813 26.68886651 -19.92248813 26.68886651 -19.44140625 30.16796875 C-18.15031915 32.58920065 -18.15031915 32.58920065 -16.44140625 34.16796875 C-13.52458488 33.85263671 -11.89350367 33.62006617 -9.78515625 31.51171875 C-8.04570576 28.47779347 -8.14066705 26.39063766 -8.25390625 22.91796875 C-8.28097656 21.8403125 -8.30804688 20.76265625 -8.3359375 19.65234375 C-8.37074219 18.8325 -8.40554687 18.01265625 -8.44140625 17.16796875 C-11.8931197 17.16796875 -15.97336222 21.01549523 -18.44140625 23.16796875 Z " fill="#007DB6" transform="translate(139.44140625,411.83203125)"/>
<path d="M0 0 C2.84134103 2.3604987 3.47066434 4.74985422 3.84228516 8.38183594 C3.87370605 9.57583008 3.90512695 10.76982422 3.9375 12 C3.99550781 13.94326172 3.99550781 13.94326172 4.0546875 15.92578125 C4.08614017 17.28905784 4.11738757 18.65233918 4.1484375 20.015625 C4.18664219 21.39455528 4.22569537 22.77346234 4.265625 24.15234375 C4.35991754 27.52330218 4.4455197 30.89425478 4.5234375 34.265625 C6.5034375 34.925625 8.4834375 35.585625 10.5234375 36.265625 C10.1934375 37.255625 9.8634375 38.245625 9.5234375 39.265625 C4.97684178 41.05554794 -0.66034123 41.92238245 -5.4765625 41.265625 C-8.3515625 39.265625 -8.3515625 39.265625 -10.4765625 37.265625 C-10.96125 37.56597656 -11.4459375 37.86632812 -11.9453125 38.17578125 C-17.30934842 41.21884009 -20.46932502 41.86755499 -26.4765625 40.265625 C-29.233398 38.56911085 -30.17361983 37.30711418 -31.07421875 34.2109375 C-31.76380966 30.23407342 -31.69189046 27.79881805 -30.1640625 24.015625 C-25.49419327 19.23715416 -19.50465162 17.09489736 -13.4140625 14.578125 C-10.37611392 13.59321407 -10.37611392 13.59321407 -9.4765625 11.265625 C-9.14322917 7.765625 -9.14322917 7.765625 -9.4765625 4.265625 C-12.70447805 2.1136813 -13.76057059 2.06476057 -17.4765625 2.265625 C-17.6003125 3.19375 -17.7240625 4.121875 -17.8515625 5.078125 C-18.4765625 8.265625 -18.4765625 8.265625 -20.4765625 11.265625 C-23.49127637 12.37630906 -24.84605111 12.55531942 -27.7890625 11.203125 C-29.4765625 9.265625 -29.4765625 9.265625 -30.0390625 6.328125 C-29.4765625 3.265625 -29.4765625 3.265625 -27.3515625 1.015625 C-18.92021913 -4.11649705 -8.78221257 -4.6690244 0 0 Z M-13.9765625 20.203125 C-14.79125 20.74839844 -15.6059375 21.29367187 -16.4453125 21.85546875 C-18.37876367 23.1086237 -18.37876367 23.1086237 -19.4765625 24.265625 C-19.70574492 28.28219643 -19.70574492 28.28219643 -19.4765625 32.265625 C-18.8165625 32.925625 -18.1565625 33.585625 -17.4765625 34.265625 C-13.94741597 34.19053678 -12.12966515 33.91872765 -9.6015625 31.390625 C-7.91893476 26.71665904 -8.24410424 22.18168667 -8.4765625 17.265625 C-10.49717928 17.265625 -12.37126291 19.12361182 -13.9765625 20.203125 Z " fill="#007DB6" transform="translate(299.4765625,411.734375)"/>
<path d="M0 0 C157.41 0 314.82 0 477 0 C477 0.66 477 1.32 477 2 C319.59 2 162.18 2 0 2 C0 1.34 0 0.68 0 0 Z " fill="#007DB6" transform="translate(54,457)"/>
<path d="M0 0 C2.51694626 2.14171345 2.94872089 2.58976716 3.375 6 C3 9 3 9 1.8125 10.875 C-0.65507108 12.40659584 -2.14519831 12.42822025 -5 12 C-7.2175753 10.6858813 -7.85715752 9.45263212 -8.625 7.01953125 C-9.13331601 5.02509691 -9.57100286 3.01298658 -10 1 C-13.43230448 1.26393501 -13.43230448 1.26393501 -17 2 C-20.64099883 7.46149825 -20.5318172 13.59920009 -20 20 C-18.91906371 25.10265513 -17.54271228 30.01478908 -13 33 C-10.04308291 33.75015195 -10.04308291 33.75015195 -7 33 C-3.46290405 30.12096841 -1.16654366 26.99100148 1 23 C1.99 23.33 2.98 23.66 4 24 C3.43589632 29.92308866 1.42727702 33.86693838 -3.0625 37.8125 C-8.91718547 40.17928774 -15.33774312 40.90892886 -21.375 38.8125 C-27.41095144 36.06552618 -31.5687243 32.27580525 -34 26 C-35.6545028 19.20190685 -35.25941491 13.22761061 -32 7 C-28.63493788 1.92133104 -25.03743777 -1.84439579 -19.1015625 -3.59765625 C-11.8158972 -4.99249552 -6.21077694 -4.20140793 0 0 Z " fill="#007DB6" transform="translate(349,413)"/>
<path d="M0 0 C2.40367591 2.77925027 2.75310468 4.69136858 3 8.3125 C-0.23719431 7.95281174 -1.63908309 7.7095086 -3.875 5.25 C-5.96097103 2.98326714 -5.96097103 2.98326714 -9.5 2.8125 C-13.60770068 3.39931438 -14.50583971 4.08729273 -17 7.3125 C-17.63076607 10.21243441 -17.63076607 10.21243441 -17.5 13.3125 C-17.5103125 14.34375 -17.520625 15.375 -17.53125 16.4375 C-16.87726377 19.97671962 -15.84226755 21.16049743 -13 23.3125 C-9.5 23.97916667 -9.5 23.97916667 -6 23.3125 C-3.09282927 21.09386971 -2.16018357 19.79305071 -1 16.3125 C-3.97 16.3125 -6.94 16.3125 -10 16.3125 C-10 14.6625 -10 13.0125 -10 11.3125 C-5.38 11.3125 -0.76 11.3125 4 11.3125 C4 16.9225 4 22.5325 4 28.3125 C2.68 28.3125 1.36 28.3125 0 28.3125 C-0.33 27.6525 -0.66 26.9925 -1 26.3125 C-1.639375 26.8075 -2.27875 27.3025 -2.9375 27.8125 C-7.06674484 29.83498727 -10.48136242 30.14928474 -15 29.3125 C-20.07276348 26.21247787 -22.24967961 22.95242126 -24 17.3125 C-24.58645532 11.83891705 -23.59760663 8.14942268 -21 3.3125 C-15.18840753 -3.54219881 -7.87486408 -4.42961105 0 0 Z " fill="#007DB6" transform="translate(302,465.6875)"/>
<path d="M0 0 C6 0 6 0 7.65917969 1.51293945 C8.07586914 2.20605225 8.49255859 2.89916504 8.921875 3.61328125 C9.38980469 4.36673828 9.85773438 5.12019531 10.33984375 5.89648438 C10.80519531 6.69376953 11.27054688 7.49105469 11.75 8.3125 C12.23082031 9.09818359 12.71164063 9.88386719 13.20703125 10.69335938 C14.10071527 12.15586457 14.98550681 13.62386754 15.85839844 15.09887695 C16.85738619 16.76250347 17.92359148 18.38538722 19 20 C19.33 13.4 19.66 6.8 20 0 C21.65 0 23.3 0 25 0 C25 9.9 25 19.8 25 30 C19 30 19 30 17.21728516 28.25585938 C16.74597168 27.45986328 16.2746582 26.66386719 15.7890625 25.84375 C15.26699219 24.98652344 14.74492187 24.12929688 14.20703125 23.24609375 C13.68496094 22.33988281 13.16289062 21.43367188 12.625 20.5 C12.07972656 19.59378906 11.53445312 18.68757813 10.97265625 17.75390625 C9.62885515 15.51423775 8.31182488 13.2585464 7 11 C6.67 17.27 6.34 23.54 6 30 C4.02 30 2.04 30 0 30 C0 20.1 0 10.2 0 0 Z M5 8 C6 10 6 10 6 10 Z " fill="#007DB6" transform="translate(165,464)"/>
<path d="M0 0 C3.50626583 1.87291218 5.66696543 3.92953173 6.875 7.8125 C6.91625 8.534375 6.9575 9.25625 7 10 C4.8125 10.3125 4.8125 10.3125 2 10 C1.195625 9.175 0.39125 8.35 -0.4375 7.5 C-2.78145009 4.76503399 -2.78145009 4.76503399 -6 4.375 C-10.2173448 5.2536135 -11.57388349 6.43218161 -14 10 C-14.7866376 15.01988323 -14.74874204 19.60788193 -12 24 C-8.81897402 25.59051299 -5.4630901 25.39740378 -2 25 C1.11810922 22.98831664 1.0544675 21.78213002 2 18 C-0.97 18 -3.94 18 -7 18 C-7 16.35 -7 14.7 -7 13 C-2.38 13 2.24 13 7 13 C7 18.61 7 24.22 7 30 C5.68 30 4.36 30 3 30 C2.67 29.34 2.34 28.68 2 28 C1.44183594 28.48597656 0.88367188 28.97195313 0.30859375 29.47265625 C-3.56006183 32.03212212 -7.52130842 31.64708369 -12 31 C-16.36784378 28.58374599 -18.4066772 25.69610932 -20 21 C-20.63954377 15.32209917 -20.7977247 10.62393957 -18.25 5.4375 C-12.69733025 -0.57789223 -7.92017525 -1.96992434 0 0 Z " fill="#007DB6" transform="translate(406,464)"/>
<path d="M0 0 C1.98 0 3.96 0 6 0 C6 3.63 6 7.26 6 11 C10.29 11 14.58 11 19 11 C19 7.37 19 3.74 19 0 C20.98 0 22.96 0 25 0 C25 9.9 25 19.8 25 30 C23.02 30 21.04 30 19 30 C19 25.71 19 21.42 19 17 C12.565 17.495 12.565 17.495 6 18 C6 21.96 6 25.92 6 30 C4.02 30 2.04 30 0 30 C0 20.1 0 10.2 0 0 Z " fill="#007DB6" transform="translate(136,464)"/>
<path d="M0 0 C2.866875 -0.0825 5.73375 -0.165 8.6875 -0.25 C9.58170654 -0.28641602 10.47591309 -0.32283203 11.3972168 -0.36035156 C15.40735655 -0.41611665 17.51099531 -0.29669237 21.01953125 1.83203125 C23.56179883 4.61498689 24 6.24466671 24 10 C22.5625 12.875 22.5625 12.875 21 15 C21.66 15.66 22.32 16.32 23 17 C23.1953125 19.6015625 23.1953125 19.6015625 23.125 22.625 C23.10695313 23.62789063 23.08890625 24.63078125 23.0703125 25.6640625 C23.04710937 26.43492187 23.02390625 27.20578125 23 28 C23.66 28 24.32 28 25 28 C25 28.66 25 29.32 25 30 C23.02 30 21.04 30 19 30 C17.29221657 26.58443314 17.37712092 22.77120917 17 19 C13.04 18.67 9.08 18.34 5 18 C5 21.96 5 25.92 5 30 C3.35 30 1.7 30 0 30 C0 20.1 0 10.2 0 0 Z M5 5 C5 7.64 5 10.28 5 13 C6.97909398 13.02686553 8.95828971 13.04633375 10.9375 13.0625 C12.59072266 13.07990234 12.59072266 13.07990234 14.27734375 13.09765625 C16.91447634 13.31262571 16.91447634 13.31262571 18 12 C18.16666667 9 18.16666667 9 18 6 C16.91447634 4.68737429 16.91447634 4.68737429 14.27734375 4.90234375 C13.17519531 4.91394531 12.07304687 4.92554688 10.9375 4.9375 C9.83277344 4.94652344 8.72804688 4.95554687 7.58984375 4.96484375 C6.73519531 4.97644531 5.88054687 4.98804688 5 5 Z " fill="#007DB6" transform="translate(419,464)"/>
<path d="M0 0 C7.59 0 15.18 0 23 0 C23 1.65 23 3.3 23 5 C17.06 5 11.12 5 5 5 C5 7.31 5 9.62 5 12 C10.28 12 15.56 12 21 12 C21 13.65 21 15.3 21 17 C15.72 17 10.44 17 5 17 C5 19.64 5 22.28 5 25 C10.94 25 16.88 25 23 25 C23 26.65 23 28.3 23 30 C15.41 30 7.82 30 0 30 C0 20.1 0 10.2 0 0 Z " fill="#007DB6" transform="translate(322,464)"/>
<path d="M0 0 C4.32990977 2.48739497 6.34966889 5.30958527 8 10 C8.92521576 16.82628702 8.17840401 21.50209998 4 27 C0.61237972 30.07249281 -2.00427002 31.26576869 -6.5 31.5 C-12.31678887 31.20671653 -15.43813904 28.64406417 -19.375 24.5 C-21.7698571 19.34184625 -21.76722701 14.59308489 -21 9 C-19.0171377 4.96345889 -16.83420139 2.3499944 -13 0 C-8.56264236 -1.47911921 -4.54432805 -0.93067838 0 0 Z M-15 8 C-16.62560673 12.8768202 -16.80931686 17.2272107 -14.6875 21.875 C-12.22751212 24.97276252 -10.55650798 25.92786008 -6.625 26.4375 C-2.93099374 26.2708563 -2.93099374 26.2708563 -0.125 24.0625 C2.64616906 20.06875635 3.3059265 16.82684039 3 12 C1.50831386 7.89786311 0.64397687 6.42931791 -3 4 C-8.46690221 3.39256642 -11.14199385 4.02852308 -15 8 Z " fill="#007DB6" transform="translate(268,464)"/>
<path d="M0 0 C3.88156368 3.09952874 5.90021929 5.85208516 6.48828125 10.76171875 C6.62175038 21.25239269 6.62175038 21.25239269 2.15234375 25.95703125 C-1.95120174 29.58342029 -5.24568728 30.66817307 -10.6015625 30.40625 C-15.71845367 29.38287177 -18.81017764 26.39611449 -21.78515625 22.26953125 C-23.42789585 17.14804898 -23.95740831 12.00742666 -22.0859375 6.86328125 C-19.90454723 2.79365197 -17.46032947 -0.22719736 -12.99609375 -1.62109375 C-8.61814292 -2.48076409 -3.93148544 -2.21925288 0 0 Z M-14.72265625 4.89453125 C-17.49382531 8.8882749 -18.15358275 12.13019086 -17.84765625 16.95703125 C-16.35597011 21.05916814 -15.49163312 22.52771334 -11.84765625 24.95703125 C-7.67503288 25.42065607 -5.56051254 25.40644065 -1.97265625 23.14453125 C1.33964447 19.73480992 1.43480912 16.60505463 1.375 11.95703125 C1.05022939 9.03979352 -0.04065189 7.23251822 -1.84765625 4.95703125 C-6.45469829 1.88566989 -10.08937417 1.77210203 -14.72265625 4.89453125 Z " fill="#007DB6" transform="translate(215.84765625,465.04296875)"/>
<path d="M0 0 C4.75972676 2.63304033 6.37888098 5.88067679 8 11 C8.70018361 17.30165251 7.70061107 21.78917071 4 27 C0.63184743 30.13316518 -1.98912059 31.25739808 -6.5 31.5 C-12.31678887 31.20671653 -15.43813904 28.64406417 -19.375 24.5 C-21.7698571 19.34184625 -21.76722701 14.59308489 -21 9 C-19.0171377 4.96345889 -16.83420139 2.3499944 -13 0 C-8.55917617 -1.48027461 -4.54814937 -0.92418395 0 0 Z M-15 8 C-16.84862688 11.69725375 -16.47587094 15.96461442 -16 20 C-14.20353146 22.93423195 -13.0558929 24.47205355 -10 26 C-5.72865231 26.4835488 -3.70053885 26.48733137 -0.125 24 C2.51032619 20.2795395 3.3091407 17.53406361 3 13 C1.93724237 8.8777886 0.63031384 6.42020923 -3 4 C-8.49264365 3.38970626 -11.0813844 4.0813844 -15 8 Z " fill="#007DB6" transform="translate(467,464)"/>
<path d="M0 0 C7.26 0 14.52 0 22 0 C22 1.65 22 3.3 22 5 C16.39 5 10.78 5 5 5 C5 7.31 5 9.62 5 12 C10.28 12 15.56 12 21 12 C21 13.65 21 15.3 21 17 C15.72 17 10.44 17 5 17 C5 19.64 5 22.28 5 25 C10.61 25 16.22 25 22 25 C22 26.65 22 28.3 22 30 C14.74 30 7.48 30 0 30 C0 20.1 0 10.2 0 0 Z " fill="#007DB6" transform="translate(81,464)"/>
<path d="M0 0 C2.77629659 1.80782103 3.74085099 2.62605826 4.6875 5.75 C4.6875 7.07 4.6875 8.39 4.6875 9.75 C3.0375 9.75 1.3875 9.75 -0.3125 9.75 C-0.43625 9.110625 -0.56 8.47125 -0.6875 7.8125 C-0.89375 7.131875 -1.1 6.45125 -1.3125 5.75 C-3.71795638 4.54727181 -5.26246953 4.64928528 -7.9375 4.6875 C-8.75476563 4.69652344 -9.57203125 4.70554687 -10.4140625 4.71484375 C-11.04054688 4.72644531 -11.66703125 4.73804688 -12.3125 4.75 C-11.9825 6.4 -11.6525 8.05 -11.3125 9.75 C-10.42046875 9.98074219 -9.5284375 10.21148437 -8.609375 10.44921875 C-7.43890625 10.77535156 -6.2684375 11.10148437 -5.0625 11.4375 C-3.90234375 11.75074219 -2.7421875 12.06398438 -1.546875 12.38671875 C2.1536005 13.94646024 3.59632157 15.35569806 5.6875 18.75 C5.8504889 23.31368922 5.17191012 25.1662237 2.25 28.6875 C-1.29423834 31.28147154 -4.68868482 31.33875343 -8.97265625 31.11328125 C-12.01632821 30.6407245 -13.96008336 29.73485154 -16.3125 27.75 C-18.4644437 24.52208445 -18.51336443 23.46599191 -18.3125 19.75 C-16.6625 19.75 -15.0125 19.75 -13.3125 19.75 C-13.18875 20.389375 -13.065 21.02875 -12.9375 21.6875 C-12.73125 22.368125 -12.525 23.04875 -12.3125 23.75 C-10.06737738 24.87256131 -8.79793351 24.88413762 -6.3125 24.875 C-5.61125 24.87757813 -4.91 24.88015625 -4.1875 24.8828125 C-2.22096225 24.86377236 -2.22096225 24.86377236 -0.3125 23.75 C-0.3125 22.43 -0.3125 21.11 -0.3125 19.75 C-1.37210937 19.41226562 -2.43171875 19.07453125 -3.5234375 18.7265625 C-4.91156164 18.27636008 -6.29957687 17.82582175 -7.6875 17.375 C-8.73550781 17.04242188 -8.73550781 17.04242188 -9.8046875 16.703125 C-15.0859375 14.9765625 -15.0859375 14.9765625 -17.3125 12.75 C-17.81681963 9.71235384 -17.76192707 6.79310861 -17.3125 3.75 C-13.00755162 -2.18785983 -6.56012663 -2.47551948 0 0 Z " fill="#007DB6" transform="translate(366.3125,464.25)"/>
<path d="M0 0 C1.98 0 3.96 0 6 0 C6.01981934 0.68626465 6.03963867 1.3725293 6.06005859 2.07958984 C6.15510945 5.17845779 6.26486847 8.27663294 6.375 11.375 C6.4059375 12.45523437 6.436875 13.53546875 6.46875 14.6484375 C6.50742187 15.6796875 6.54609375 16.7109375 6.5859375 17.7734375 C6.6173584 18.72653809 6.6487793 19.67963867 6.68115234 20.66162109 C6.78555796 23.18895176 6.78555796 23.18895176 9 25 C13.05261287 25.34490322 14.54754176 25.30163882 18 23 C18.50904384 20.5842887 18.50904384 20.5842887 18.51171875 17.7734375 C18.54716797 16.7421875 18.58261719 15.7109375 18.61914062 14.6484375 C18.64169922 13.56820313 18.66425781 12.48796875 18.6875 11.375 C18.72166016 10.28703125 18.75582031 9.1990625 18.79101562 8.078125 C18.87368334 5.38551937 18.94277087 2.69324709 19 0 C20.65 0 22.3 0 24 0 C24.14584726 3.87460078 24.23425444 7.74849117 24.3125 11.625 C24.35439453 12.71941406 24.39628906 13.81382812 24.43945312 14.94140625 C24.57759564 24.05881242 24.57759564 24.05881242 21.60546875 27.7109375 C17.53475572 31.28730607 14.77292767 31.39738466 9.48046875 31.3515625 C7 31 7 31 4 28.75 C0.97515765 24.59084177 -0.25561572 21.98295151 -0.1953125 16.796875 C-0.18886719 15.8171875 -0.18242187 14.8375 -0.17578125 13.828125 C-0.15902344 12.81234375 -0.14226562 11.7965625 -0.125 10.75 C-0.11597656 9.71875 -0.10695313 8.6875 -0.09765625 7.625 C-0.07412011 5.08309713 -0.04124023 2.5416672 0 0 Z " fill="#007DB6" transform="translate(478,464)"/>
<path d="M0 0 C3.50626583 1.87291218 5.66696543 3.92953173 6.875 7.8125 C6.91625 8.534375 6.9575 9.25625 7 10 C4.75 10.3125 4.75 10.3125 2 10 C1.071875 8.7625 1.071875 8.7625 0.125 7.5 C-1.84272105 4.63660508 -1.84272105 4.63660508 -5.5 4.4375 C-8.96270866 4.75879538 -8.96270866 4.75879538 -11.375 6.5 C-13.56723067 9.87266257 -14.0759312 13.0515776 -14 17 C-13.04320011 21.30559951 -12.71844938 22.52103374 -9 25 C-4.92509248 25.33957563 -3.46998729 25.31332486 0 23 C1.20450304 20.44816596 1.20450304 20.44816596 2 18 C3.65 18 5.3 18 7 18 C6.72387317 21.95781786 6.25946652 23.69956508 3.625 26.75 C-0.67000076 30.43142922 -3.10904834 31.56661072 -8.64453125 31.44921875 C-12.81808979 30.65326646 -15.32569009 28.17574302 -18 25 C-20.65316534 20.73186445 -20.53634112 15.88573241 -20 11 C-18.37863382 5.79456122 -16.58231582 2.97850528 -12 0 C-7.80011838 -1.39996054 -4.27518201 -1.06333318 0 0 Z " fill="#007DB6" transform="translate(126,464)"/>
<path d="M0 0 C2.701875 -0.0825 5.40375 -0.165 8.1875 -0.25 C9.02949951 -0.28641602 9.87149902 -0.32283203 10.73901367 -0.36035156 C14.67603679 -0.41837972 16.56872297 -0.27286024 19.98828125 1.890625 C22.38190505 4.40044413 22.92967199 5.36704794 23.3125 8.8125 C22.92835642 12.7307645 21.70743683 14.21293267 19 17 C16.23547967 18.38226016 13.9538637 18.09525387 10.875 18.0625 C7.966875 18.0315625 7.966875 18.0315625 5 18 C5 21.96 5 25.92 5 30 C3.35 30 1.7 30 0 30 C0 20.1 0 10.2 0 0 Z M5 5 C5 7.64 5 10.28 5 13 C6.81242052 13.02687279 8.62495233 13.04633715 10.4375 13.0625 C11.95150391 13.07990234 11.95150391 13.07990234 13.49609375 13.09765625 C15.94021067 13.28612676 15.94021067 13.28612676 17 12 C17.16666667 9 17.16666667 9 17 6 C15.94021067 4.71387324 15.94021067 4.71387324 13.49609375 4.90234375 C12.48675781 4.91394531 11.47742188 4.92554688 10.4375 4.9375 C9.42558594 4.94652344 8.41367187 4.95554687 7.37109375 4.96484375 C6.58863281 4.97644531 5.80617188 4.98804688 5 5 Z " fill="#007DB6" transform="translate(508,464)"/>
<path d="M0 0 C8.25 0 16.5 0 25 0 C25 1.65 25 3.3 25 5 C21.7 5 18.4 5 15 5 C15 13.25 15 21.5 15 30 C13.35 30 11.7 30 10 30 C10 21.75 10 13.5 10 5 C6.7 5 3.4 5 0 5 C0 3.35 0 1.7 0 0 Z " fill="#007DB6" transform="translate(53,464)"/>
<path d="M0 0 C1.65 0 3.3 0 5 0 C5 8.25 5 16.5 5 25 C9.95 25 14.9 25 20 25 C20 26.65 20 28.3 20 30 C13.4 30 6.8 30 0 30 C0 20.1 0 10.2 0 0 Z " fill="#007DB6" transform="translate(226,464)"/>
<path d="M0 0 C1.65 0 3.3 0 5 0 C5 9.9 5 19.8 5 30 C3.35 30 1.7 30 0 30 C0 20.1 0 10.2 0 0 Z " fill="#007DB6" transform="translate(311,464)"/>
<path d="M0 0 C-0.99 1.485 -0.99 1.485 -2 3 C-4.3828125 3.29296875 -4.3828125 3.29296875 -7.125 3.1875 C-8.03507813 3.16042969 -8.94515625 3.13335937 -9.8828125 3.10546875 C-10.58148438 3.07066406 -11.28015625 3.03585938 -12 3 C-12 2.34 -12 1.68 -12 1 C-7.93631321 0.22596442 -4.13574827 -0.0984702 0 0 Z " fill="#17B3F3" transform="translate(244,151)"/>
<path d="M0 0 C0.33 0.99 0.66 1.98 1 3 C0.34 3.66 -0.32 4.32 -1 5 C-0.67 5.66 -0.34 6.32 0 7 C-3.625 10 -3.625 10 -7 10 C-7 8 -7 8 -4.625 5.5625 C-3.75875 4.716875 -2.8925 3.87125 -2 3 C-1.34 2.01 -0.68 1.02 0 0 Z " fill="#1285BD" transform="translate(140,164)"/>
</svg>
